<?xml version="1.0" standalone="no"?>
<!DOCTYPE svg PUBLIC "-//W3C//DTD SVG 20010904//EN"
 "http://www.w3.org/TR/2001/REC-SVG-20010904/DTD/svg10.dtd">
<svg version="1.0" xmlns="http://www.w3.org/2000/svg"
 width="700.000000pt" height="700.000000pt" viewBox="0 0 700.000000 700.000000"
 preserveAspectRatio="xMidYMid meet">
<metadata>
Created by potrace 1.11, written by Peter Selinger 2001-2013
</metadata>
<g transform="translate(0.000000,700.000000) scale(0.100000,-0.100000)"
fill="#000000" stroke="none">
<path d="M1080 6994 c-313 -46 -510 -138 -709 -329 -180 -174 -293 -377 -348
-627 -17 -79 -18 -198 -18 -2538 0 -2358 1 -2458 19 -2540 54 -246 174 -461
353 -631 131 -125 278 -212 452 -268 182 -60 14 -56 2671 -56 2044 0 2456 2
2515 14 488 96 855 456 961 941 18 82 19 182 19 2540 0 2358 -1 2458 -19 2540
-92 423 -400 770 -796 899 -185 60 29 55 -2640 57 -1339 1 -2446 0 -2460 -2z
m2730 -984 c202 -12 331 -31 510 -75 263 -65 473 -141 701 -255 137 -69 292
-166 287 -179 -2 -5 -140 -250 -308 -545 -382 -671 -437 -766 -443 -772 -3 -3
-54 27 -113 67 -126 83 -187 113 -350 169 -218 75 -462 99 -659 65 -590 -103
-956 -664 -810 -1241 74 -292 308 -547 615 -671 201 -82 416 -99 687 -57 212
33 488 161 642 298 29 26 55 45 58 42 16 -16 753 -1311 753 -1324 0 -28 -305
-215 -468 -287 -216 -95 -599 -207 -822 -240 -148 -22 -560 -31 -735 -16 -486
43 -881 176 -1260 426 -455 301 -804 775 -953 1297 -79 276 -105 471 -105 788
0 384 48 657 171 970 235 596 689 1073 1252 1315 436 188 842 256 1350 225z"/>
</g>
</svg>
